name Walk10.mot
datacolumns 19
datarows 27
range 2.15500000 2.28500000
endheader

                time	   L_ground_force_vx	   L_ground_force_vy	   L_ground_force_vz	   L_ground_force_px	   L_ground_force_py	   L_ground_force_pz	   R_ground_force_vx	   R_ground_force_vy	   R_ground_force_vz	   R_ground_force_px	   R_ground_force_py	   R_ground_force_pz	   L_ground_torque_x	   L_ground_torque_y	   L_ground_torque_z	   R_ground_torque_x	   R_ground_torque_y	   R_ground_torque_z	
          2.15500000	         -0.00000000	         -0.00000000	          0.00000000	          0.00000000	          0.00000000	          0.00000000	        -27.68580679	        543.08798126	        -46.50434275	          0.25243279	          0.00000000	          0.08962310	          0.00000000	         -0.00000000	          0.00000000	          0.00000000	          0.39739313	          0.00000000	
          2.16000000	         -0.00000000	         -0.00000000	          0.00000000	          0.00000000	          0.00000000	          0.00000000	        -25.47680129	        536.40557914	        -45.45493104	          0.25432919	          0.00000000	          0.09025558	          0.00000000	         -0.00000000	          0.00000000	          0.00000000	          0.38110102	          0.00000000	
          2.16500000	         -0.00000000	         -0.00000000	          0.00000000	          0.00000000	          0.00000000	          0.00000000	        -23.42750982	        530.13974219	        -44.18212785	          0.25598445	          0.00000000	          0.09076231	          0.00000000	         -0.00000000	          0.00000000	          0.00000000	          0.35743311	          0.00000000	
          2.17000000	          0.00000000	          0.00000000	         -0.00000000	         -0.00000000	          0.00000000	         -0.00000000	        -21.40970775	        524.12745378	        -42.89528030	          0.25748348	          0.00000000	          0.09102468	          0.00000000	          0.00000000	          0.00000000	          0.00000000	          0.35893884	          0.00000000	
          2.17500000	          0.00000000	          0.00000000	         -0.00000000	         -0.00000000	          0.00000000	         -0.00000000	        -19.43219141	        518.81923106	        -41.74954965	          0.25902537	          0.00000000	          0.09138298	          0.00000000	          0.00000000	          0.00000000	          0.00000000	          0.38370729	          0.00000000	
          2.18000000	         -0.00000000	         -0.00000000	         -0.00000000	         -0.00000000	          0.00000000	         -0.00000000	        -17.45184000	        514.43586507	        -40.74460378	          0.26070749	          0.00000000	          0.09189323	          0.00000000	         -0.00000000	          0.00000000	          0.00000000	          0.41369018	          0.00000000	
          2.18500000	         -0.00000000	         -0.00000000	          0.00000000	          0.00000000	          0.00000000	          0.00000000	        -15.38901591	        510.46585725	        -39.90244476	          0.26218690	          0.00000000	          0.09223359	          0.00000000	         -0.00000000	          0.00000000	          0.00000000	          0.43099185	          0.00000000	
          2.19000000	         -0.00000000	         -0.00000000	          0.00000000	          0.00000000	          0.00000000	          0.00000000	        -13.29040507	        506.74749694	        -39.23304967	          0.26331911	          0.00000000	          0.09253683	          0.00000000	         -0.00000000	          0.00000000	          0.00000000	          0.42057849	          0.00000000	
          2.19500000	          0.00000000	          0.00000000	         -0.00000000	          0.00000000	          0.00000000	          0.00000000	        -11.27526153	        503.46588666	        -38.87554347	          0.26454501	          0.00000000	          0.09269074	          0.00000000	          0.00000000	          0.00000000	          0.00000000	          0.41343868	          0.00000000	
          2.20000000	          0.00000000	          0.00000000	         -0.00000000	         -0.00000000	          0.00000000	         -0.00000000	         -9.44236118	        500.72957827	        -38.84591129	          0.26608432	          0.00000000	          0.09292591	          0.00000000	          0.00000000	          0.00000000	          0.00000000	          0.35879929	          0.00000000	
          2.20500000	          0.00000000	          0.00000000	         -0.00000000	         -0.00000000	          0.00000000	         -0.00000000	         -7.63705040	        498.26417236	        -39.06635401	          0.26747984	          0.00000000	          0.09333119	          0.00000000	          0.00000000	          0.00000000	          0.00000000	          0.24086787	          0.00000000	
          2.21000000	         -0.00000000	         -0.00000000	          0.00000000	          0.00000000	          0.00000000	          0.00000000	         -5.82045142	        495.83208863	        -39.56875537	          0.26849867	          0.00000000	          0.09366586	          0.00000000	         -0.00000000	          0.00000000	          0.00000000	          0.15383406	          0.00000000	
          2.21500000	         -0.00000000	         -0.00000000	          0.00000000	          0.00000000	          0.00000000	          0.00000000	         -4.19494979	        493.83058590	        -40.22999949	          0.26954263	          0.00000000	          0.09388598	          0.00000000	         -0.00000000	          0.00000000	          0.00000000	          0.12481353	          0.00000000	
          2.22000000	         -0.00000000	         -0.00000000	          0.00000000	          0.00000000	          0.00000000	          0.00000000	         -2.78458307	        492.19684469	        -40.95774035	          0.27048362	          0.00000000	          0.09397707	          0.00000000	         -0.00000000	          0.00000000	          0.00000000	          0.12150691	          0.00000000	
          2.22500000	          0.00000000	          0.00000000	         -0.00000000	         -0.00000000	          0.00000000	         -0.00000000	         -1.49080697	        490.79959936	        -41.61579075	          0.27167495	          0.00000000	          0.09398152	          0.00000000	          0.00000000	          0.00000000	          0.00000000	          0.08982533	          0.00000000	
          2.23000000	          0.00000000	          0.00000000	         -0.00000000	         -0.00000000	          0.00000000	         -0.00000000	         -0.22715288	        489.90579457	        -42.08155345	          0.27325114	          0.00000000	          0.09409837	          0.00000000	          0.00000000	          0.00000000	          0.00000000	          0.04874692	          0.00000000	
          2.23500000	         -0.00000000	          0.00000000	         -0.00000000	         -0.00000000	          0.00000000	         -0.00000000	          1.10200218	        489.60549659	        -42.47623368	          0.27460559	          0.00000000	          0.09418935	          0.00000000	          0.00000000	          0.00000000	          0.00000000	          0.05120107	          0.00000000	
          2.24000000	         -0.00000000	         -0.00000000	          0.00000000	          0.00000000	          0.00000000	          0.00000000	          2.44475954	        489.99617664	        -42.85044407	          0.27568635	          0.00000000	          0.09411400	          0.00000000	         -0.00000000	          0.00000000	          0.00000000	          0.07326425	          0.00000000	
          2.24500000	         -0.00000000	         -0.00000000	          0.00000000	          0.00000000	          0.00000000	          0.00000000	          3.67826693	        491.65383617	        -43.14346088	          0.27652173	          0.00000000	          0.09408260	          0.00000000	         -0.00000000	          0.00000000	          0.00000000	          0.08480562	          0.00000000	
          2.25000000	          0.00000000	          0.00000000	          0.00000000	          0.00000000	          0.00000000	          0.00000000	          4.81272691	        495.06119326	        -43.29597307	          0.27772411	          0.00000000	          0.09429399	          0.00000000	          0.00000000	          0.00000000	          0.00000000	          0.07991940	          0.00000000	
          2.25500000	          0.00000000	          0.00000000	         -0.00000000	         -0.00000000	          0.00000000	         -0.00000000	          6.02844821	        499.48626416	        -43.36487372	          0.27927687	          0.00000000	          0.09447757	          0.00000000	          0.00000000	          0.00000000	          0.00000000	          0.08958354	          0.00000000	
          2.26000000	          0.00000000	          0.00000000	         -0.00000000	         -0.00000000	          0.00000000	         -0.00000000	          7.31721162	        504.04937244	        -43.40474001	          0.28047805	          0.00000000	          0.09427146	          0.00000000	          0.00000000	          0.00000000	          0.00000000	          0.14252925	          0.00000000	
          2.26500000	         -0.00000000	         -0.00000000	          0.00000000	          0.00000000	          0.00000000	          0.00000000	          8.59542709	        509.23862785	        -43.37888451	          0.28141322	          0.00000000	          0.09397584	          0.00000000	         -0.00000000	          0.00000000	          0.00000000	          0.20067751	          0.00000000	
          2.27000000	         -0.00000000	         -0.00000000	          0.00000000	          0.00000000	          0.00000000	          0.00000000	          9.87466845	        515.60064327	        -43.27595839	          0.28231802	          0.00000000	          0.09389025	          0.00000000	         -0.00000000	          0.00000000	          0.00000000	          0.22292886	          0.00000000	
          2.27500000	         -0.00000000	         -0.00000000	          0.00000000	          0.00000000	          0.00000000	          0.00000000	         11.12144014	        522.83389951	        -43.20251886	          0.28333297	          0.00000000	          0.09384970	          0.00000000	         -0.00000000	          0.00000000	          0.00000000	          0.26148295	          0.00000000	
          2.28000000	          0.00000000	          0.00000000	         -0.00000000	         -0.00000000	          0.00000000	         -0.00000000	         12.36872701	        530.29910810	        -43.15935666	          0.28451147	          0.00000000	          0.09366712	          0.00000000	          0.00000000	          0.00000000	          0.00000000	          0.32885792	          0.00000000	
          2.28500000	          0.00000000	          0.00000000	         -0.00000000	         -0.00000000	          0.00000000	         -0.00000000	         13.67079714	        537.98202710	        -43.06568597	          0.28539196	          0.00000000	          0.09341088	          0.00000000	          0.00000000	          0.00000000	          0.00000000	          0.41293102	          0.00000000	
